<svg xmlns="http://www.w3.org/2000/svg" version="1.1" xmlns:xlink="http://www.w3.org/1999/xlink"
    xmlns:svgjs="http://svgjs.com/svgjs">
    <svg viewBox="0 0 32 19" version="1.1"
        xmlns="http://www.w3.org/2000/svg" xmlns:xlink="http://www.w3.org/1999/xlink">
        <title>logo</title>
        <g id="davidPuertoLogo" stroke="none" stroke-width="1" fill="none" fill-rule="evenodd">
            <g id="logos" fill="#212121" fill-rule="nonzero">
                <path
                    d="M17.7762223,0 C22.0993405,1.05095417 26,3.22401634 26,8.83692672 C26,14.4498371 21.4058992,19 15.7387888,19 L0,19 L3.40465506,15.304337 L15.7387888,15.304337 C19.3451318,15.304337 22.2686505,12.4087788 22.2686505,8.83692672 C22.2686505,5.26507465 18.569846,3.41487829 14.963503,3.41487829 L17.7762223,0 Z" />
                <path
                    d="M27.7379518,18.2620482 C27.2459815,17.7600377 27,17.1701841 27,16.4924699 C27,15.8147556 27.2484915,15.2299221 27.7454819,14.7379518 C28.2424723,14.2459815 28.8298159,14 29.5075301,14 C30.1852444,14 30.7700778,14.2459815 31.2620481,14.7379518 C31.7540185,15.2299221 32,15.8147556 32,16.4924699 C32,17.1701841 31.7540185,17.7575276 31.2620481,18.2545181 C30.7700778,18.7515085 30.1852444,19 29.5075301,19 C28.8298159,19 28.2399623,18.7540185 27.7379518,18.2620482 Z" />
            </g>
        </g>
    </svg>
    <style>@media (prefers-color-scheme: light) { :root { filter: none; } }
        @media (prefers-color-scheme: dark) { :root { filter: invert(100%); } }
</style>
</svg>